<svg width="13" height="13" viewBox="0 0 13 13" fill="none" xmlns="http://www.w3.org/2000/svg">
<path d="M1.12211 11.2623H11.8762L6.49916 1.7377L1.12211 11.2623ZM0.277887 10.1171L5.65494 0.594272C5.76017 0.407622 5.88995 0.258026 6.03556 0.155528C6.18117 0.0530292 6.33924 0 6.49916 0C6.65909 0 6.81716 0.0530292 6.96277 0.155528C7.10838 0.258026 7.23816 0.407622 7.34339 0.594272L12.7204 10.1171C13.355 11.2414 12.8393 13 11.8762 13H1.12211C0.906579 13.0003 0.695559 12.9043 0.514324 12.7235C0.33309 12.5426 0.189323 12.2847 0.100241 11.9805C0.0111586 11.6763 -0.0194627 11.3387 0.0120437 11.0082C0.0435501 10.6778 0.135849 10.3684 0.277887 10.1171Z" fill="#0275D8"/>
</svg>
