<svg width="13" height="13" viewBox="0 0 13 13" fill="none" xmlns="http://www.w3.org/2000/svg">
<path d="M1.12211 1.73774H11.8762L6.49916 11.2623L1.12211 1.73774ZM0.277887 2.88291L5.65494 12.4057C5.76017 12.5924 5.88995 12.742 6.03556 12.8445C6.18117 12.947 6.33924 13 6.49916 13C6.65909 13 6.81716 12.947 6.96277 12.8445C7.10838 12.742 7.23816 12.5924 7.34339 12.4057L12.7204 2.88291C13.355 1.75859 12.8393 6.38977e-07 11.8762 6.38977e-07H1.12211C0.906579 -0.000285788 0.695559 0.0957284 0.514324 0.276546C0.33309 0.457363 0.189323 0.715318 0.100241 1.01952C0.0111586 1.32372 -0.0194627 1.66128 0.0120437 1.99176C0.0435501 2.32224 0.135849 2.63164 0.277887 2.88291Z" fill="#EE8563"/>
</svg>
